<svg id="AinUtophia" xmlns="http://www.w3.org/2000/svg" viewBox="0 0 798.02 220.05"><defs><style>.cls-1{fill:#fff;}</style></defs><title>logo</title><path class="cls-1" d="M207.83,281.35q18.81,12.22,18.81,30.45a35.45,35.45,0,0,1-6,20,30.32,30.32,0,0,1-16.05,12.4,28.93,28.93,0,0,1,1,7.91q0,18.35-11.44,29.55t-30,11.2a31.93,31.93,0,0,1-15.69-3.71,36.46,36.46,0,0,1-14.5,15.07,39.41,39.41,0,0,1-20.12,5.65q-16.89,0-27.67-8.14t-14-22.52a81.33,81.33,0,0,1-12,1.08q-18.8,0-30.36-11.26A37.25,37.25,0,0,1,18.21,341.2q0-16.29,9.7-26.24A36.92,36.92,0,0,1,9.05,300.77a38.73,38.73,0,0,1-7-22.58Q2,261.78,16.4,246a63.48,63.48,0,0,1,35.2-19.94Q60,210.51,78.84,201.76A90.08,90.08,0,0,1,117.09,193a104.17,104.17,0,0,1,46.51,10.43q21.24,10.43,33.46,28t12.21,36.08A61.18,61.18,0,0,1,207.83,281.35Zm-76.54-35.87a13,13,0,0,0-9.59,4.86,15.83,15.83,0,0,0-3.47,10.12A21.47,21.47,0,0,0,123.62,275a20.1,20.1,0,0,0,3.47-8.38l.48,1c0,2.39-1.07,5.11-3.23,8.14a18.7,18.7,0,0,0,6.95,5.15l1.44.72A43.81,43.81,0,0,0,146.5,285a53.77,53.77,0,0,0,9,.48q9.22-.83,14.44-6.58a20.81,20.81,0,0,0,5.21-14.5,62.8,62.8,0,0,0-.48-6.83,43.32,43.32,0,0,0-7.3-19.68q-7.41-11-25.36-17.33l-1.32-.48-1.79.24A1.87,1.87,0,0,1,137,219l-.72-.24a3.66,3.66,0,0,1-1.55.48,5.75,5.75,0,0,1-1.68-1l-.95-.24a2.94,2.94,0,0,1-3,2.4q-2,0-2.64-2.4l-.71-.24a2.32,2.32,0,0,1-2,.72,6.05,6.05,0,0,1-2.39-1.31,1.75,1.75,0,0,1-1.92,1.19,3.28,3.28,0,0,1-2-1.19l-2.87.83q-12.57,3-15.32,6.47a4.12,4.12,0,0,1,2.28,3.48c0,2.07-.76,3.11-2.28,3.11s-2.39-1.33-2.39-4a3.89,3.89,0,0,1,.72-2.23,16.21,16.21,0,0,0-4.91-1,22.88,22.88,0,0,0-13.28,4.32q-6.23,4.31-7.3,10.9a24.5,24.5,0,0,0,1.68,13.77,19.06,19.06,0,0,0,12,11.38l.84.36-.72.48q-2.4,0-6.59-3.05t-6.71-9.41a25,25,0,0,1-1.56-13.53,17.21,17.21,0,0,1,7.26-11.8,22.58,22.58,0,0,1,13.61-4.49A14.46,14.46,0,0,1,98.14,224q2.86-3.07,9-5.32t9.11-2.25l.85.12c1-1,1.75-1.53,2.39-1.53l1.32,1h1q.24-1.32,2.4-1.32.6,0,1.32,1.2h1q.6-2.4,2.64-2.4c1.52,0,2.59.88,3.23,2.64l.73.36a2.53,2.53,0,0,1,1.67-1.08c1,0,1.8.64,2.28,1.91l1,.48,1-.48q1.08,0,2.28,1.68,18.47,6.36,27,17.37,5.52,8.75,8,21.92a18.93,18.93,0,0,1,.36,4.43q0,10.18-5.69,16.71t-15.28,7a46,46,0,0,1-9.22-.48,52.17,52.17,0,0,1-13.54-3.47l-1.43-.72a33,33,0,0,1-7.67-5.15,32.46,32.46,0,0,1-10.06,6.95A42.27,42.27,0,0,1,103.62,286a81.7,81.7,0,0,1-11.26.72,49.25,49.25,0,0,1-27.79-8.32,38.23,38.23,0,0,1-16.42-22.58A41.19,41.19,0,0,1,47,245.25a36.93,36.93,0,0,1,4.19-17.61A59.42,59.42,0,0,0,18.6,246.32q-13.44,14.74-13.45,31a40.31,40.31,0,0,0,6.47,22.35,32.72,32.72,0,0,0,17.85,13.73,26.6,26.6,0,0,1,17.61-6.83q9.11,0,9.1,4.19,0,2.76-4.55,4.32a38.34,38.34,0,0,1-12.1,1.56,34.76,34.76,0,0,1-10.06-1.44q-8.74,9-8.75,22.78,0,19.9,12.5,30.1A43.78,43.78,0,0,0,61.63,378.3a63,63,0,0,0,10.05-.72l-.24-3.72.12-1.8,1.08,5.28q15.18-3,23-11.27t7.84-13.55c0-1.6.26-2.4.79-2.4l.52,1.44q0,6.6-8.26,15.35T73,379q2.88,13.55,13.36,21.16t27.34,7.62a39.48,39.48,0,0,0,19.46-5.34,36.31,36.31,0,0,0,14.35-13.85q-10.07-5.75-10.06-16.4,0-7.29,4.95-7.3,3.75,0,6.46,3.88a14.55,14.55,0,0,1,2.72,8.53,26.65,26.65,0,0,1-2,9.78q6,2.85,15.18,2.85,16.73,0,28.08-11.2T204.12,351a30.24,30.24,0,0,0-.72-6.59,25.08,25.08,0,0,1-7.17,1,28.65,28.65,0,0,1-8.08-1.38q-4.6-1.38-4.6-2l.72-.48,1.43.48A27.54,27.54,0,0,0,196.46,344a22.13,22.13,0,0,0,6.7-.95,30.11,30.11,0,0,0-11.9-16.51,33.56,33.56,0,0,0-19.67-6.14A49.7,49.7,0,0,0,158.8,322a32.39,32.39,0,0,0-11.24,5.63q-8.85,6.7-13.16,19.76l-.65,1.32-.79-.48q0-2.5,3.36-9.34A36,36,0,0,1,147,326.46a32.44,32.44,0,0,1,11.51-5.63,49.54,49.54,0,0,1,13.32-1.8,34.81,34.81,0,0,1,20.45,6.35,30.84,30.84,0,0,1,12.17,17.37,25.66,25.66,0,0,0,14-11.38q5-8.26,5-20.36,0-16.65-15.73-28.27-8.29,32.94-50.39,33.9a51.72,51.72,0,0,1-12.82-1.32,65.29,65.29,0,0,1-11.73-3.95l-1.44-.72a51.25,51.25,0,0,1-8.81-6c-2.19-2-3.29-3.21-3.29-3.77l.48-.24a37.13,37.13,0,0,0,11.62,9.1l1.44.72a64.51,64.51,0,0,0,11.73,3.95,49.38,49.38,0,0,0,12.58,1q40.19-1.43,49.07-33.56a37.7,37.7,0,0,0-10.33-4.65,17.23,17.23,0,0,0-4.69-.72h-1.92a13.14,13.14,0,0,0-6.19,1.3,3.94,3.94,0,0,0-2.46,3.54q0,3.43,3.95,3.43c1.28,0,1.92.22,1.92.65s-.64.66-1.92.66q-5.39,0-5.39-4a5.9,5.9,0,0,1,2.65-5,11.55,11.55,0,0,1,7-1.94h2.4a20.51,20.51,0,0,1,5.17,1,44.46,44.46,0,0,1,10.11,4.19,63.9,63.9,0,0,0,1.32-12.81q0-18.57-11.75-35.16T163.84,206a101.82,101.82,0,0,0-44.12-9.65,97,97,0,0,0-38.66,7.85q-18.28,7.84-26.79,21.5a52.78,52.78,0,0,1,6.35-.48,31.09,31.09,0,0,1,6.06.66c2.19.44,3.29.86,3.29,1.26s-.36.72-1.08.72l-.84-.24q-2.51-1.08-8.87-1.08a40.87,40.87,0,0,0-5.75.6A34,34,0,0,0,48.87,244a46.19,46.19,0,0,0,1.2,10.76,36.5,36.5,0,0,0,15.48,22.77q12,8.07,28,8.07a63,63,0,0,0,9.84-.71,55.48,55.48,0,0,0,10.32-2.76,19.63,19.63,0,0,0,9.35-6.35,25.34,25.34,0,0,1-6.35-17.37,15.48,15.48,0,0,1,3.94-10.72A14.89,14.89,0,0,1,131.36,243h1.43a21.89,21.89,0,0,1,13.73,4.69q6.09,4.69,6.09,11.08a10.23,10.23,0,0,1-2.34,6.92,7.88,7.88,0,0,1-6.29,2.7,6.9,6.9,0,0,1-3.65-1.07q-1.74-1.08-3.65-5.15t-4-4l-1.44,3.6-.72.24q-2.52,0-2.52-2.16,0-2.64,3.24-3a4.93,4.93,0,0,1,1.44,0c1.75.17,3.27,1.62,4.55,4.38s2.41,4.43,3.41,5a6.28,6.28,0,0,0,3.29.9q7.2,0,7.19-8.22,0-5.25-5.63-9.35a21.1,21.1,0,0,0-12.81-4.12Zm-17.61,38.1a40.82,40.82,0,0,1,.48,5.63q0,17.49-7.84,30.9,14.79,5.76,14.79,19.41a17.28,17.28,0,0,1-3.37,10.84c-2.24,2.91-3.8,4.37-4.66,4.37l-.24-.6.48-.72q1.68-2,1.68-6.82a11.87,11.87,0,0,0-2.73-7.61q-2.73-3.42-13.87-8.09a57.18,57.18,0,0,1-19.18,13.24,55.77,55.77,0,0,1-21.82,4.61q-9.36,0-14.39-4.49a13.9,13.9,0,0,1-5-10.72,11.33,11.33,0,0,1,2.68-7.73A9.26,9.26,0,0,1,48,322.75q9.28,0,9.29,9.27a5.9,5.9,0,0,1-2.1,4.82,8.29,8.29,0,0,1-5.45,1.72,8,8,0,0,1-4.37-1.44A6.57,6.57,0,0,1,42.52,334a18.48,18.48,0,0,0,1.15,7.42c.75,1.68,2.36,3.1,4.8,4.26a21.2,21.2,0,0,0,9.07,1.73,49.48,49.48,0,0,0,20.24-4.76,51,51,0,0,0,18-13.2Q83,322.88,83,310.77a18.14,18.14,0,0,1,4.55-12q4.55-5.39,5.87-5.39l1.32.48-1,.84A10.69,10.69,0,0,0,89,304.18a12.13,12.13,0,0,0,2.77,8.09q2.76,3.28,10.58,6.29A57.86,57.86,0,0,0,103.49,286l-.24-1q-7.44-25.93-29.75-32l-1.2-.24A42.58,42.58,0,0,0,64,251.71a30.57,30.57,0,0,0-14,3.23l-2,1a25.89,25.89,0,0,0-9.24,10,27.85,27.85,0,0,0-3.24,13q0,9.07,5.71,14.69t15,5.62q9.85,0,16.1-4.79l.6-.36.72.48q0,1-5.21,3.53a27.67,27.67,0,0,1-12.4,2.58A25.05,25.05,0,0,1,37,292.44a28.42,28.42,0,0,1-7.78-20.24,27.31,27.31,0,0,1,4.68-14.86,36.94,36.94,0,0,1,13-12.09l2-1.2a41.07,41.07,0,0,1,20-4.91h3a42.62,42.62,0,0,1,28.13,13.11q11.46,11.81,13.62,30ZM30.91,314a35.56,35.56,0,0,0,10.3,1.44,30,30,0,0,0,9.16-1.32c2.76-.87,4.13-1.83,4.13-2.87s-.64-1.78-1.91-2.46a10.26,10.26,0,0,0-4.79-1A24.41,24.41,0,0,0,30.91,314Zm69.47-85.88c0-1-.68-2-2-2.76a4,4,0,0,0-.72,2.28c0,1.28.48,1.91,1.43,1.91S100.38,229.07,100.38,228.12Zm32.46,63.24h12.1a30.59,30.59,0,0,1,1.33-5.39l.24-1q4.45-14.73,11.86-21.86t9.57-7.12l.48.24L167,257.82q-9.81,8-11.38,27.67v1a68.42,68.42,0,0,0-.24,6.95,109.92,109.92,0,0,0,1.8,22l.24,1.2a34.37,34.37,0,0,0,1.2,4.19l.24,1.2q4.78,14,15.93,14,5.63,0,9.94-5.51l1.32-1.31.24.48q0,3.82-15.21,15-5,3.68-10.3,11.38l-.48-.72q0-1.31,5.39-8.5l-1.31-.72q-12-4.8-16.68-18.45l-.48-1.2a42.22,42.22,0,0,1-2.5-11v-1q-.48-5.87-.48-10.06v-3.95H132.84v39c0,1.2-.24,1.8-.71,1.8s-.72-.6-.72-1.8V234q0-1.8.72-1.8c.47,0,.71.6.71,1.8Zm15.59,95.23a21.61,21.61,0,0,0,1.66-7.66,16.59,16.59,0,0,0-2.31-8.51q-2.31-3.94-5.39-3.95a3,3,0,0,0-2.67,1.8,7.7,7.7,0,0,0-1,3.83Q138.71,381.57,148.43,386.59Zm26.3-129q-8.58-5.26-8.58-13.53a14.57,14.57,0,0,1,1.3-6.11l.72-1.56a19,19,0,0,1,6.11-6.17,12.8,12.8,0,0,1,6.48-2.33l1.08.48-1.68.83q-6.22,2-6.23,7.19a9.36,9.36,0,0,0,1.69,5.21q1.68,2.58,9.75,7.43t10.53,9.22a18.24,18.24,0,0,1,2.47,9.05,19,19,0,0,1-2.05,8.86l-.49,1a18.61,18.61,0,0,1-5.49,6.47c-2.21,1.6-4.16,2.39-5.85,2.39-1.29,0-1.93-.2-1.93-.6s.63-.59,1.91-.59,2.74-.78,4.14-2.34a10.31,10.31,0,0,0,2.45-6.05v-1.2a14.69,14.69,0,0,0-2.15-7.66q-2.15-3.6-10.72-8.15l-2-1.08Z" transform="translate(-2.04 -193.02)"/><path class="cls-1" d="M246.64,331.05a8.83,8.83,0,0,0,2,5.49c1.36,1.75,2.79,2.62,4.31,2.62a7.37,7.37,0,0,0,5.15-2.28l.48.72q0,.86-4.91,4.56t-12.94,11.13l-.6-.48c0-.65.5-1.39,1.5-2.21a3.42,3.42,0,0,0,1.5-2.58l-1.44-1.91q-4.18-4.56-4.19-8.87V303.7c0-1.2-.78-2.35-2.34-3.47s-2.65-1.68-3.29-1.68-1.88.72-3.95,2.16l-.48-1.08q12.75-9.87,16.66-14.62l.71-.71c.63,0,1,.24,1,.71s-1.47,2.52-4.43,5.87q0,1.33,3.15,3.57a27.33,27.33,0,0,0,7,3.56q-4.91,2.14-4.91,4.89Zm-7.36-77.18a6.37,6.37,0,0,1,4.39,1.86,5.64,5.64,0,0,1,2,4.25,6,6,0,0,1-1.78,4.25,5.56,5.56,0,0,1-4.15,1.86,6.17,6.17,0,0,1-4.33-1.86,5.72,5.72,0,0,1-1.95-4.25,6,6,0,0,1,1.77-4.25A5.46,5.46,0,0,1,239.28,253.87Z" transform="translate(-2.04 -193.02)"/><path class="cls-1" d="M277.55,301.67a36,36,0,0,1,9.15-8.39,43.17,43.17,0,0,0,7.71-6,54.88,54.88,0,0,0,4.82-6.71l.48.72q0,1-3.12,5.87,0,1.68,2.5,3.77t7.25,2.1q1.79,0,5.35-1.92l.48.48a95.71,95.71,0,0,0-8,6.31c-2.8,2.42-5.19,3.63-7.19,3.63a9.78,9.78,0,0,1-7-3.11q-3.18-3.1-3.78-3.11c-.48,0-1.69.87-3.65,2.61a22,22,0,0,0-5,6.61v26q0,6.84,6.56,9.11l1.58.89-1.45.79q-7.85,2.06-12.55,10.88l-1,1.33q-.6,0-.6-.72a6.18,6.18,0,0,1,1.14-2.39,5.84,5.84,0,0,0,1.14-2.64c0-.72-.95-2.07-2.85-4.07s-3.63-3-5.21-3a12.55,12.55,0,0,0-3.32.71l-1-.47c0-.43.76-1,2.27-1.68q6.12-2.76,6.11-7.31V305.26a7,7,0,0,0-2.45-5q-2.46-2.4-4.37-2.4-1.56,0-4.44,2.76l-.48-.84q0-.94,6.95-6t8.09-6.76a22.94,22.94,0,0,0,2.33-5.34l.48.72c0,1.34-1,3.93-2.87,7.79q5.86,5.86,5.87,8.86Zm39.05,30.78.48.48c0,.71-2.1,3.28-6.3,7.68a61.19,61.19,0,0,0-9.87,13.28l-.48-.48a7,7,0,0,1,1.13-2.93,6.92,6.92,0,0,0,1.14-2.94c0-.4-.56-1-1.67-1.91a19.28,19.28,0,0,1-6.35-9.59,42.86,42.86,0,0,1-1.56-11.74q0-13.77,7.37-21.14t8.68-7.36l.72.47-.72.73q-8.62,6.24-8.62,19,0,19.71,11.38,19.7C313.2,335.68,314.76,334.61,316.6,332.45Z" transform="translate(-2.04 -193.02)"/><path class="cls-1" d="M451,284.06a39.89,39.89,0,0,1-12.19-3v16.17q6.2,1.92,10.73,3.72,5.12,2.15,11,4.43l1.43.72v-1.68q0-9.1,7.85-15.09a30,30,0,0,1,18.74-6,31.7,31.7,0,0,1,24.26,10.54q9.76,10.55,9.76,26.23a35.55,35.55,0,0,1-6,19.53A46.58,46.58,0,0,1,499.87,355q-.48,19.41-12.51,31.5t-30,12.1a36,36,0,0,1-12.46-2.15,33.77,33.77,0,0,1-12.7,12.28,35.1,35.1,0,0,1-17.25,4.37,34.44,34.44,0,0,1-22.7-8q-9.63-8-9.64-19.59a34.82,34.82,0,0,1,3.71-16.24h-2.75q-18.21,0-31.44-11.18t-13.24-27.88a35.36,35.36,0,0,1,12-27.21q12-11,29.05-11a42.08,42.08,0,0,1,19,4.49q9,4.5,9,6.17l-.48.24-1.2-.72A43.43,43.43,0,0,0,380,293.4a38.31,38.31,0,0,0-26.66,10.3A33.15,33.15,0,0,0,342,329.22a36,36,0,0,0,12,27.67q12,11,29.17,11a20.67,20.67,0,0,0,3.71-.24q5.88-10.79,14.14-10.78,4.18,0,4.19,2.4,0,3.24-4.91,5.88a37.69,37.69,0,0,1-12.46,3.72,24.85,24.85,0,0,0-2.27,10.57q0,15.6,8.46,23.59t24.81,8q16.2,0,24.82-15a28.46,28.46,0,0,1-11.38-8.95,19.91,19.91,0,0,1-4.07-11.94,15.15,15.15,0,0,1,2.1-8.47,6.48,6.48,0,0,1,5.69-3.18q4.91,0,9.22,5a16.2,16.2,0,0,1,4.31,10.69A32.81,32.81,0,0,1,446.09,394a29.71,29.71,0,0,0,12.08,2.77q17.2,0,28.44-11.36t11.83-29.73a48.61,48.61,0,0,1-23.24,5.63,57.53,57.53,0,0,1-25.4-5.87A51.7,51.7,0,0,1,430,338.92l-1-1.44a43.7,43.7,0,0,1-7.43-24.55,47.65,47.65,0,0,1,3.48-19.05l-4.44-1.8a89.8,89.8,0,0,1-8.74-4.19Q387.88,275,383.68,252.07a65.69,65.69,0,0,1-1-11.74q0-18.68,15.51-31.26t36.24-12.58q26.59,0,44,14.68T495.8,245q0,14.13-9.8,25.63t-25.7,13.42A59.11,59.11,0,0,1,451,284.06ZM383.73,252a42,42,0,0,0-10-1.2q-11.47,0-18.35,6.52t-6.88,16.83A15.23,15.23,0,0,0,353,285.19a14.41,14.41,0,0,0,10.62,4.62,19,19,0,0,0,11.33-3.6l.83-.24c0,.48-1.21,1.38-3.65,2.7a18.25,18.25,0,0,1-8.8,2,19,19,0,0,1-14.8-6.89,23.83,23.83,0,0,1-6-16.23q0-10.18,9.23-18.93t25.39-8.75a49.93,49.93,0,0,1,5.63.48h1q17.43,2.76,27.52,15.82t10.09,28.39a53,53,0,0,1-.24,6.11l-.24,1.43a72.93,72.93,0,0,1-11.56,30.43q8.17,3.48,16.11,13.06l2.16,2.15a5.32,5.32,0,0,0,1.68-.24l2.16-1a33.78,33.78,0,0,0,6.22-3.71l1.2-1A34.16,34.16,0,0,0,449.56,322a.64.64,0,0,1,.72.72q0,1-2.76,3.77a56.35,56.35,0,0,1-8.77,6.77l-1.21,1.08a59.77,59.77,0,0,0-5.52,3.35l-1.92,1.2q-2.66,2-4.45,3.23a110.54,110.54,0,0,0-14.06,11.62l-.72-.48q0-1.1,4.19-5.39c0-.8-.67-2.57-2-5.33s-5.57-5.93-12.65-9.52q-16.2,15-31.9,15-7.8,0-12.12-3.29t-4.31-8q0-8.14,7.12-8.14a8.65,8.65,0,0,1,5.67,1.87,6,6,0,0,1,2.3,4.9,5.7,5.7,0,0,1-2,4.29,6.39,6.39,0,0,1-4.46,1.87,10.88,10.88,0,0,1-5.26-1.91l-.36,1q0,2.26,3.85,4.19a21.74,21.74,0,0,0,9.74,1.92q6.74,0,15-3.81a63.24,63.24,0,0,0,15.58-10.33q-13.72-7.19-13.72-18.09,0-6.71,3.42-11t5.08-4.25l.48.48-.48.72a9.07,9.07,0,0,0-2.39,6.35,10.88,10.88,0,0,0,3.18,8.14q3.18,3.12,13,6.83,4.86-9.48,4.86-23.88a80.48,80.48,0,0,0-.72-10.08l-.6-1.92q-5.37-27.6-26.42-33.6Zm76.61,31.14q14.49-2,23.3-12.82a39.09,39.09,0,0,0,8.81-25.51q0-19.41-16.21-33.12t-42.73-13.72q-20.37,0-35.1,12.49t-14.73,29.82a61.15,61.15,0,0,0,1.2,12.07q4.19,21,26.47,33.54l9.58,4.67a24.11,24.11,0,0,0,2.4,1,14.74,14.74,0,0,1,2.28,1A44.39,44.39,0,0,1,434.47,279a40.64,40.64,0,0,1-13.78-13q-4.67-7.48-4.67-9.4l.48-1,.6,1.19q6.34,14.86,18.33,21.45a9.28,9.28,0,0,1,2-1.8V251.23q-6.46-2-9.64-5.85c-2.12-2.55-3.17-4.26-3.17-5.14l.48-.72.36.48a19.57,19.57,0,0,0,12,10.28V244.9c0-1.19.22-1.79.66-1.79s.66.6.66,1.79v5.86a24.2,24.2,0,0,0,6.32.71q8.1,0,12.45-3.77t4.35-10.36q0-10.18-10.54-16.29l-.72.6a1.68,1.68,0,0,1-2.16-1.08l-.23-1a3.43,3.43,0,0,1-2.11,1.2,2,2,0,0,1-1.73-1v-1.2a2.6,2.6,0,0,1-1.2,1,2.27,2.27,0,0,1-2.51-.72,4.06,4.06,0,0,1-1.47,3.14,3.78,3.78,0,0,1-5.48.22c2.48-1.36,3.51-2.68,3.12-4a26,26,0,0,0-6.11.72,1.72,1.72,0,0,1-2,1.92,1.44,1.44,0,0,1-1.51-1l-1,.24c.24.48-.08,1-.95,1.44a1.59,1.59,0,0,1-1.68-.58q-10.9,4.89-17.49,17.59l-.72,1.08-.48-.48q0-1.32,4.67-7.85a34.78,34.78,0,0,1,13.54-10.8c-.32-.84,0-1.38,1-1.61l.84-.23a1.32,1.32,0,0,1,1.07.72l1.2-.24c0-1.44.54-2.15,1.62-2.15a1.65,1.65,0,0,1,1.62,1.19q2-.47,5.87-1a1.54,1.54,0,0,0-1.44-1l-1.68-.12q1.68-1.68,2.64-1.68a5.6,5.6,0,0,1,4.91,2.75l1-1.07a2,2,0,0,1,2.51,1.55l.6.24.69-.72a1.9,1.9,0,0,1,2.43,1.2l.24.48.47.24.51-.24.87-.24c.59,0,1,.56,1.38,1.68a26.63,26.63,0,0,1,9.52,7.31,14.19,14.19,0,0,1,3.54,8.86,14.5,14.5,0,0,1-5.27,11.56q-5.28,4.48-13.66,4.49a25.34,25.34,0,0,1-6.83-.84v23.6q5.27-3.94,6.83-3.95l.48.24a46.86,46.86,0,0,0-7.31,4.67v3.47a43.33,43.33,0,0,0,12.46,3.24A34.51,34.51,0,0,0,460.34,283.1Zm-71.75,84.45a39.54,39.54,0,0,0,11-2.94q4.24-2,4.25-4.13c0-1.68-.92-2.51-2.75-2.51Q393.39,358,388.59,367.55Zm48.87-69.36q-4-1.2-11.27-3.83a40.47,40.47,0,0,0-2.14,13.89,56.41,56.41,0,0,0,7.24,28.27l.71,1.2a38.17,38.17,0,0,0,5.46,6.71Zm0-1.44V280.34a8.89,8.89,0,0,1-2.27-1A39.4,39.4,0,0,0,426.56,293Q434.1,295.8,437.46,296.75Zm7.31,96.79a31.42,31.42,0,0,0,2.4-12.46,19.12,19.12,0,0,0-3.54-11q-3.53-5.15-7.48-5.15a5.29,5.29,0,0,0-4.08,2.1,7.76,7.76,0,0,0-1.79,5.21Q430.28,386.23,444.77,393.54Zm-7.31-114.16v-1.79l-1.31,1.32Zm51.77,47.7q-9.09-11.28-25.94-19.19a16.37,16.37,0,0,0,3.65,8.15c1.79,2,3.64,3,5.55,3,.48,0,.84-.41,1.08-1.25s.72-1.26,1.43-1.26a.85.85,0,0,1,1,1q0,2.86-3.47,2.87c-2.23,0-4.36-1.15-6.39-3.47a17.55,17.55,0,0,1-3.89-9.34l-1.67-.72q-6.45-2.76-11-4.68c-1.83-.63-3.87-1.29-6.1-2s-3.78-1.14-4.66-1.38v47.08q15.42,14,38.62,14a41.26,41.26,0,0,0,21-5.53A42.6,42.6,0,0,0,490,328Zm.7,1.06a49.86,49.86,0,0,1-14.73,15.53q-8.38,5.47-11,9.62l-.72-.48q0-.6,3.59-5.51l-1.33-1.07q-16.39-10.07-16.4-44.09V301a90.8,90.8,0,0,1,1.45-16.89l.24-1q4.32-18.33,13.41-28t11.5-9.65l.48.24-1.68,1.44a23.85,23.85,0,0,0-11.38,14,70,70,0,0,0-3.12,21.92v1a35.93,35.93,0,0,0-.24,4.43c0,1,0,2.65.12,4.85s.12,3.93.12,5.21a62.4,62.4,0,0,0,.24,6.83v1.44q1.08,14.49,4.85,21t8.27,8a30.68,30.68,0,0,0,5.33,1.44c1.12,0,2.64-.91,4.55-2.75a38.38,38.38,0,0,0,5.75-7.31q1.08-1.68,1.44-1.2T489.93,328.14Zm9.94,25.39a41.79,41.79,0,0,0,14.59-15,39.44,39.44,0,0,0,5.18-19.71q0-14.73-9.33-24.37t-24.5-9.64a24.12,24.12,0,0,0-16,5.63,17.52,17.52,0,0,0-6.75,14v2.16q18.12,8.75,26.59,19.64,4.44-7.55,4.43-12.22,0-9.81-7.42-9.82-2.16,0-2.16,1.44l1.2,2.15-1,.48a1.67,1.67,0,0,1-1.88-1.91q0-3.36,4-3.36a8,8,0,0,1,6.23,2.64,10,10,0,0,1,2.39,6.95q0,6.71-4.79,14.49A45.53,45.53,0,0,1,499.87,353.53Z" transform="translate(-2.04 -193.02)"/><path class="cls-1" d="M556.41,337.84l.48.48a126.24,126.24,0,0,0-12.66,11c-3.38,3.43-5.26,5.15-5.66,5.15l-.48-.48q2.74-3.19,2.75-4.19c0-1.36-1.17-3.27-3.51-5.75s-5.77-3.71-10.29-3.71q-.84,0-4.29,2.39-1,0-1-.84,0-.6,6.5-4.55t10.34-3.95q3,0,12.39,7.19a5.39,5.39,0,0,0,2.76-1.38A5.44,5.44,0,0,1,556.41,337.84ZM532,289q0-9.83,1.74-14.26t8.27-9.22q6.51-4.78,7.24-4.79l.48.79-.24.53a23.74,23.74,0,0,0-5.75,7.15q-1.56,3.34-1.56,11.93V289h7.07a1.35,1.35,0,0,1,1.55,1.5c0,1-.52,1.49-1.55,1.49h-7.07V311.9q0,15.62-16.28,26.06c-.64.4-1.33.8-2,1.2l-.36-.6.12-.84q.48-.24,2.64-1.56t3.95-5.16q1.8-3.86,1.8-14.66V292h-5.39a1.3,1.3,0,0,1-1.44-1.49q0-1.5,1.44-1.5Z" transform="translate(-2.04 -193.02)"/><path class="cls-1" d="M584.56,287.65l1.22.84q13.88,7.18,13.88,25.51a26.62,26.62,0,0,1-3.25,11.92q-3.25,6.42-11.43,14.44A154,154,0,0,0,572.34,354l-.47-.72q2.75-4.17,2.75-5l-1.42-1Q560,339.4,560,324.07a36.14,36.14,0,0,1,3.68-15.58q3.67-7.78,12.35-15.39t11.88-12.64l.48.72Q588.4,282.25,584.56,287.65Zm-1.67,50q3.83.12,6-5.55A38.74,38.74,0,0,0,591,318.37a25,25,0,0,0-5.09-15.47q-5.09-6.75-9.4-6.74-2.88-.12-5,6.62a46.19,46.19,0,0,0-2.1,13.8q0,9.32,3.95,15.17T582.89,337.6Z" transform="translate(-2.04 -193.02)"/><path class="cls-1" d="M622.42,305.5q14.49-11.5,21.8-21.44l1.2-1.08.47.48a4.7,4.7,0,0,1-1.43,2.76c-1,1.1-1.44,1.86-1.44,2.27,0,.8.82,1.86,2.45,3.17a8.34,8.34,0,0,0,5.34,2c1.11,0,3.35-1,6.7-3l.48.47q0,.84-6.71,5.63t-8.5,4.79q-4.32,0-7.67-4.55l-12.69,11v29.11a23,23,0,0,1,7-1.2,14.94,14.94,0,0,1,10.11,3.6l.83.6q.84,0,3-3.12a11.62,11.62,0,0,0,2.15-6.73,35.75,35.75,0,0,0-1.91-9.37,35.46,35.46,0,0,1-1.92-9.13q0-6.84,10.18-13.69a11,11,0,0,1,2.16-1.33l.6.48c-2.56,2.17-3.83,4.33-3.83,6.49a36.49,36.49,0,0,0,1.73,9.18,36.74,36.74,0,0,1,1.74,9.19,16.61,16.61,0,0,1-2.7,8.64q-2.69,4.45-11.14,11.23t-11.2,10.14l-.48-.72a3,3,0,0,1,1-1.68,3,3,0,0,0,1-1.92,6.06,6.06,0,0,0-1.86-3.77q-1.86-2.1-6.4-2.34v22.85c0,3.29.36,5.37,1.1,6.26a3.66,3.66,0,0,0,3,1.32l.74.33L626,373.54q-9.36,5.5-13.86,12l-1.21,1.07-.48-.47a2.36,2.36,0,0,1,.75-1.44c1.41-1.92,2.12-4.79,2.12-8.63V343.11q-4.66,1.56-11,6.95-.72,0-.72-1a72,72,0,0,1,11.74-8.5V303.92a7.17,7.17,0,0,0-2.39-5.37q-2.4-2.28-3.72-2.28a5.18,5.18,0,0,0-3.83,2q-1.8,2-2.28,2.46l-1.31-1.08a57.79,57.79,0,0,1,6.76-6q4.74-3.72,13.12-11.52l.48.48c0,.55-1.64,2.5-4.91,5.87l1.68,1.54q5.51,3.93,5.51,9.16Z" transform="translate(-2.04 -193.02)"/><path class="cls-1" d="M678.12,305.14a58.48,58.48,0,0,1,7.08-6.39,78.22,78.22,0,0,0,7.32-6.44,31.62,31.62,0,0,0,5.12-7.65c.56,0,.84.32.84.95a9.56,9.56,0,0,1-1.32,3.36,6.22,6.22,0,0,0,2.26,4.43,7.21,7.21,0,0,0,5.11,2.16q2.87,0,8.56-4.91c.56,0,.84.23.84.71q-4.54,4-8.26,7.93c-2.48,2.62-5.11,3.93-7.91,3.93q-3,0-8.86-5.51-8,6.44-10.78,9.94v20.13q0,8.39,6.85,11.5l1.53,1.23-.94.57q-6.12,1-11.76,10.15c-1.25,1.86-2.2,2.7-2.87,2.54q2.28-4.77,2.28-5.75c0-1.43-.88-3-2.62-4.61s-3.16-2.45-4.27-2.45a9,9,0,0,0-3.62,1,9.28,9.28,0,0,1-2.67,1q-.72,0-.72-.84l2.25-1.43Q669,337.48,669,332V271.84a25.32,25.32,0,0,1,6.29-17.25q6.29-7.18,16.47-7.19,6.83,0,11,3.72t4.2,8q0,8.26-6.65,8.27a6.18,6.18,0,0,1-4.54-1.88,6.46,6.46,0,0,1-1.87-4.77q0-4.83,5.34-6.17l1.49-.72c0-.88-.75-1.88-2.23-3s-3.8-1.68-6.93-1.68q-6.26,0-9.87,3.49c-2.41,2.32-3.61,7.06-3.61,14.19Zm25,6.59a20.89,20.89,0,0,0,3.06,10.12,24,24,0,0,1,3,11.92q0,8.14-6.35,18.27a94.57,94.57,0,0,1-14.73,18.14q-8.38,8-9.34,8l-.48-.84,1.91-1.91q20.13-17.82,20.13-33.61,0-3.71-2.46-9.57a26.76,26.76,0,0,1-2.45-10A24.56,24.56,0,0,1,701,306.39q5.52-6.88,6.94-6.88.84,0,.84.72l-.72.84Q703.16,306.58,703.15,311.73Z" transform="translate(-2.04 -193.02)"/><path class="cls-1" d="M735.26,331.05a8.82,8.82,0,0,0,2,5.49q2,2.63,4.31,2.62a7.35,7.35,0,0,0,5.15-2.28l.48.72c0,.57-1.63,2.09-4.91,4.56s-7.58,6.18-12.93,11.13l-.6-.48c0-.65.5-1.39,1.49-2.21a3.42,3.42,0,0,0,1.5-2.58l-1.44-1.91q-4.19-4.56-4.19-8.87V303.7c0-1.2-.78-2.35-2.33-3.47s-2.66-1.68-3.3-1.68-1.88.72-3.95,2.16l-.48-1.08q12.76-9.87,16.66-14.62l.71-.71c.64,0,1,.24,1,.71s-1.48,2.52-4.43,5.87q0,1.33,3.15,3.57a27.17,27.17,0,0,0,7,3.56c-3.28,1.43-4.91,3.06-4.91,4.89Zm-7.37-77.18a6.36,6.36,0,0,1,4.39,1.86,5.66,5.66,0,0,1,2,4.25,6,6,0,0,1-1.78,4.25,5.58,5.58,0,0,1-4.15,1.86,6.13,6.13,0,0,1-4.33-1.86,5.69,5.69,0,0,1-2-4.25,6,6,0,0,1,1.78-4.25A5.44,5.44,0,0,1,727.89,253.87Z" transform="translate(-2.04 -193.02)"/><path class="cls-1" d="M777.78,333.29q-3.57,5.13-12.27,11.35A39.09,39.09,0,0,0,755,355l-.6.83q-.6,0-.6-.72,0-.94,2.58-3.83t2.57-4.2l-1.19-1.79q-7.54-7.66-7.55-20.25,0-16.77,18.88-32a75.83,75.83,0,0,0,11.43-11.55l.47.48c0,.55-1.55,2.75-4.67,6.59q11.5,8.86,15.46,9c1,.1,1.43.38,1.43.84q-6.47,3.46-6.47,5.73v26.4a10.36,10.36,0,0,0,2.88,7.59c1.92,2,3.55,2.93,4.91,2.93q1.2,0,4.91-2.64.6,0,.6.72t-5.33,4q-5.33,3.3-12.64,11.32l-.24-.48c0-.64,1.32-2.59,4-5.87,0-.4-.61-1.12-1.83-2.15Q777.79,340.35,777.78,333.29Zm-.12-2.52V303q0-1.67-3.72-4.37c-2.48-1.8-4.16-2.69-5-2.69s-2.62,2.33-5,7-3.54,10.37-3.54,17.07q0,8.14,2.86,13.12t6.66,5Q773.85,338.08,777.66,330.77Z" transform="translate(-2.04 -193.02)"/></svg>